<?xml version="1.0" encoding="UTF-8"?>
<svg id="Ebene_1" data-name="Ebene 1" xmlns="http://www.w3.org/2000/svg" viewBox="0 0 1013.22 1013.22">
  <defs>
    <style>
      .cls-1 {
        fill: #6a35ff;
      }

      .cls-2 {
        fill: #fff;
      }
    </style>
  </defs>
  <circle class="cls-1" cx="506.61" cy="506.61" r="506.61"/>
  <path class="cls-2" d="M851.32,480.23c1.53,40.81-7.24,84.11-26.32,129.9-19.09,45.81-51.02,92.32-95.78,139.51-48.75,51.39-100.68,85.8-155.76,103.26-55.1,17.48-109.87,18.13-164.27,2-54.42-16.12-103.82-47.98-148.23-95.56-27.54-29.5-49.16-60.48-64.85-92.95-15.68-32.45-26-66.08-30.95-100.91-4.95-34.8-4.54-69.6,1.24-104.37,5.77-34.76,17.75-68.9,35.95-102.42,18.18-33.51,42.29-66.09,72.34-97.77,33.44-35.25,68.83-62.97,106.16-83.22,37.33-20.23,76.32-30.55,116.96-31,40.64-.41,82.38,10.56,125.19,32.93,42.82,22.38,86.44,59.16,130.82,110.33l-402.1,423.88-63.25-67.75,302.64-319.03c-21.94-18.68-43.35-32.27-64.2-40.77-20.86-8.48-41.57-12.01-62.19-10.61-20.6,1.42-40.67,7.64-60.19,18.64-19.52,11.02-38.63,26.38-57.32,46.09-19.27,20.32-34.16,41.1-44.69,62.35-10.52,21.25-16.67,42.67-18.45,64.26-1.77,21.58.12,42.89,5.68,63.91,5.56,21.03,14.53,41.76,26.86,62.2,12.35,20.45,27.51,40.31,45.5,59.58,29.24,31.32,60.61,54.4,94.15,69.23,33.52,14.85,67.39,18.3,101.57,10.33,34.18-7.93,67.42-28.95,99.73-63,30.61-32.26,50.91-64.71,60.91-97.37,10-32.64,10.54-62.79,1.61-90.42"/>
</svg>